# Blender 3.5.1
# www.blender.org
mtllib ground.mtl
o Cube
v -1000.000000 0.000000 1000.000000
v -1000.000000 0.000000 1000.000000
v -1000.000000 0.000000 -1000.000000
v -1000.000000 0.000000 -1000.000000
v 1000.000000 0.000000 1000.000000
v 1000.000000 0.000000 1000.000000
v 1000.000000 0.000000 -1000.000000
v 1000.000000 0.000000 -1000.000000
vn -0.0000 -0.0000 -0.0000
vn -0.0000 -1.0000 -0.0000
vn -0.0000 1.0000 -0.0000
vt -24.500000 -99.500000
vt -24.500000 100.500000
vt -74.500000 50.500000
vt 25.500000 -99.500000
vt 25.500000 100.500000
vt 75.500000 50.500000
vt -24.500000 -49.500000
vt -74.500000 0.500000
vt 25.500000 -49.500000
vt 75.500000 0.500000
vt -24.500000 50.500000
vt 25.500000 50.500000
vt -24.500000 0.500000
vt 25.500000 0.500000
s 0
f 1/1/1 2/4/1 4/9/1 3/7/1
f 3/7/1 4/9/1 8/14/1 7/13/1
f 7/13/1 8/14/1 6/12/1 5/11/1
f 5/11/1 6/12/1 2/5/1 1/2/1
f 3/8/2 7/13/2 5/11/2 1/3/2
f 8/14/3 4/10/3 2/6/3 6/12/3
